<?xml version="1.0" encoding="utf-8"?>
<svg width="2428.1px" height="1792px" viewBox="0 0 2428.1 1792" xmlns="http://www.w3.org/2000/svg">
<path d="M1363,877l-742,742c-12.7,12.7-27.7,19-45,19s-32.3-6.3-45-19l-166-166c-12.7-12.7-19-27.7-19-45s6.3-32.3,19-45l531-531
	L365,301c-12.7-12.7-19-27.7-19-45c0-17.3,6.3-32.3,19-45L531,45c12.7-12.7,27.7-19,45-19s32.3,6.3,45,19l742,742
	c12.7,12.7,19,27.7,19,45S1375.7,864.3,1363,877z"/>
<path d="M2123,877l-742,742c-12.7,12.7-27.7,19-45,19s-32.3-6.3-45-19l-166-166c-12.7-12.7-19-27.7-19-45s6.3-32.3,19-45l531-531
	l-531-531c-12.7-12.7-19-27.7-19-45c0-17.3,6.3-32.3,19-45l166-166c12.7-12.7,27.7-19,45-19s32.3,6.3,45,19l742,742
	c12.7,12.7,19,27.7,19,45S2135.7,864.3,2123,877z"/>
</svg>
