<?xml version="1.0" encoding="utf-8"?>
<!-- Generator: Adobe Illustrator 19.2.0, SVG Export Plug-In . SVG Version: 6.00 Build 0)  -->
<svg version="1.1" id="Layer_1" xmlns="http://www.w3.org/2000/svg" xmlns:xlink="http://www.w3.org/1999/xlink" x="0px" y="0px"
	 width="384px" height="512px" viewBox="0 0 384 512" style="enable-background:new 0 0 384 512;" xml:space="preserve">
<g>
	<path d="M140.2,255c-13.8,13.8-21.4,32.2-21.4,51.8c0,29.5,9.5,36.8,73.2,129c63.8-92.2,73.2-99.5,73.2-129
		c0-19.6-7.6-37.9-21.4-51.8c-13.8-13.8-32.2-21.4-51.8-21.4S154.1,241.2,140.2,255z M235.9,306.8c0,24.2-19.7,43.9-43.9,43.9
		s-43.9-19.7-43.9-43.9s19.7-43.9,43.9-43.9S235.9,282.6,235.9,306.8z"/>
	<path d="M377,105L279.1,7c-4.5-4.5-10.6-7-17-7H256v128h128v-6.1C384,115.6,381.5,109.5,377,105z"/>
	<path d="M162.7,306.8c0,16.2,13.1,29.3,29.3,29.3s29.3-13.1,29.3-29.3s-13.1-29.3-29.3-29.3S162.7,290.7,162.7,306.8z"/>
	<path d="M224,136V0H24C10.7,0,0,10.7,0,24v464c0,13.3,10.7,24,24,24h336c13.3,0,24-10.7,24-24V160H248C234.8,160,224,149.2,224,136
		z M279.9,306.8c0,35.4-12.3,45.3-78.8,141.7c-4.4,6.3-13.7,6.3-18.1,0c-66.5-96.4-78.8-106.3-78.8-141.7
		c0-48.5,39.3-87.9,87.9-87.9S279.9,258.3,279.9,306.8z"/>
</g>
</svg>
