<?xml version="1.0" encoding="utf-8"?>
<!-- Generator: Adobe Illustrator 19.2.0, SVG Export Plug-In . SVG Version: 6.00 Build 0)  -->
<svg version="1.1" id="Layer_1" xmlns="http://www.w3.org/2000/svg" xmlns:xlink="http://www.w3.org/1999/xlink" x="0px" y="0px"
	 width="384px" height="512px" viewBox="0 0 384 512" style="enable-background:new 0 0 384 512;" xml:space="preserve">
<g>
	<path d="M377,105L279.1,7c-4.5-4.5-10.6-7-17-7H256v128h128v-6.1C384,115.6,381.5,109.5,377,105z"/>
	<g>
		<path d="M102.4,288c-6,0-13,7.2-13,16v32c0,8.8,5,16,13,16s12-7.2,12-16v-32C114.4,295.2,108.4,288,102.4,288z"/>
		<path d="M198.9,288c-1.3,0-1.7,0-2.8,0c-2,0-3.9,1.5-3.9,3.6c0,5-0.6,15.4-0.1,18.8c0.1,0.6-0.1-0.5,0.1,38.9
			c0,2.2,0.8,2.6,2.3,2.6c1.5,0,3,0,4.5,0c8.8,0,16-7.2,16-16v-32c0-4.4-1.8-8.4-4.7-11.3C205.6,288.1,200,288,198.9,288z"/>
		<path d="M248,160c-13.2,0-24-10.8-24-24V0H24C10.7,0,0,10.7,0,24v464c0,13.3,10.7,24,24,24h336c13.3,0,24-10.7,24-24V160H248z
			 M146.7,336c0,25.4-21.5,47.9-44.7,47.9c-23.3,0-44.6-22.5-44.6-47.9v-32c0-25.4,21.3-47.9,44.6-47.9s44.7,22.5,44.7,47.9V336z
			 M246.9,336c0,26.5-21.5,48-48,48h-6.8h-1.3h-21.6c-5.1,0-9.1-3.6-9.1-8v-16c0-4.4,0-75.6,0-80v-16c0-4.4,4.1-8,9.1-8h21.6h1.3
			h6.8c26.5,0,48,21.5,48,48V336z M284.2,384h-12.3c-4.4,0-8-3.6-8-8v-16c0-4.4,3.6-8,8-8h12.3c6,0,10.4-3.5,10.4-6.6
			c0-1.3-0.7-2.7-2.1-3.8l-21.9-18.8c-8.5-7.2-13.3-17.5-13.3-28.1c0-21.3,19-38.6,42.4-38.6h12.3c4.4,0,8,3.6,8,8v16
			c0,4.4-3.6,8-8,8h-12.3c-6,0-10.4,3.5-10.4,6.6c0,1.3,0.7,2.6,2.1,3.8l21.9,18.8c8.5,7.2,13.3,17.5,13.3,28.1
			C326.6,366.7,307.6,384,284.2,384z"/>
	</g>
</g>
</svg>
