<?xml version="1.0" encoding="iso-8859-1"?>
<!-- Generator: Adobe Illustrator 19.2.0, SVG Export Plug-In . SVG Version: 6.00 Build 0)  -->
<svg version="1.1" xmlns="http://www.w3.org/2000/svg" xmlns:xlink="http://www.w3.org/1999/xlink" x="0px" y="0px" width="835.3px"
	 height="341.3px" viewBox="0 0 835.3 341.3" enable-background="new 0 0 835.3 341.3" xml:space="preserve">
<g id="Layer_1">
	<g>
		<path fill="#FFFFFF" d="M106,175.7h-6.5c-1.1,0-2,0.9-2,2v2.8c-0.5-0.1-0.9-0.1-1.4-0.1H51.2c-4.4,0-7.9,3.6-7.9,7.9v23.7
			c0,4.4,3.6,7.9,7.9,7.9h44.8c0.5,0,1-0.1,1.4-0.1v3c0,1.1,0.9,2,2,2h6.5c1.1,0,2-0.9,2-2v-45C108,176.6,107.1,175.7,106,175.7z"/>
		<rect x="98.8" y="183.2" width="8.7" height="6.8"/>
		<rect x="43.3" y="187" width="54.2" height="5.5"/>
	</g>
	<g>
		<path fill="#FFFFFF" d="M241.6,175.7h6.5c1.1,0,2,0.9,2,2v2.8c0.5-0.1,0.9-0.1,1.4-0.1h44.8c4.4,0,7.9,3.6,7.9,7.9v23.7
			c0,4.4-3.6,7.9-7.9,7.9h-44.8c-0.5,0-1-0.1-1.4-0.1v3c0,1.1-0.9,2-2,2h-6.5c-1.1,0-2-0.9-2-2v-45
			C239.6,176.6,240.5,175.7,241.6,175.7z"/>
		<rect x="240.1" y="183.2" transform="matrix(-1 -8.983005e-011 8.983005e-011 -1 488.8333 373.1667)" width="8.7" height="6.8"/>
		<rect x="250.1" y="187" transform="matrix(-1 -8.979630e-011 8.979630e-011 -1 554.3333 379.5377)" width="54.2" height="5.5"/>
	</g>
	<path fill="#FFFFFF" d="M121,231.8h-7.8c-0.6,0-1-0.4-1-1v-63c0-0.6,0.4-1,1-1h7.8c0.6,0,1,0.4,1,1v63
		C122,231.3,121.6,231.8,121,231.8z"/>
	<path fill="#FFFFFF" d="M234.3,231.8h-7.8c-0.6,0-1-0.4-1-1v-63c0-0.6,0.4-1,1-1h7.8c0.6,0,1,0.4,1,1v63
		C235.3,231.3,234.8,231.8,234.3,231.8z"/>
	<path fill="#FFFFFF" d="M193.5,170.9h-39.3c-0.6,0-1-0.4-1-1V162c0-0.6,0.4-1,1-1h39.3c0.6,0,1,0.4,1,1v7.9
		C194.5,170.5,194.1,170.9,193.5,170.9z"/>
	<path fill="#FFFFFF" d="M180.5,158.5h-13c-0.6,0-1-0.4-1-1v-13c0-0.6,0.4-1,1-1h13c0.6,0,1,0.4,1,1v13
		C181.5,158.1,181.1,158.5,180.5,158.5z"/>
	<path fill="#FFFFFF" d="M189.3,140.5h-31c-1.1,0-2-0.9-2-2V134c0-1.1,0.9-2,2-2h31c1.1,0,2,0.9,2,2v4.5
		C191.3,139.6,190.4,140.5,189.3,140.5z"/>
	<path fill="#FFFFFF" d="M227.1,126.5h-107c-3.2,0-5.9-2.6-5.9-5.9v0c0-3.2,2.6-5.9,5.9-5.9h107c3.2,0,5.9,2.6,5.9,5.9v0
		C233,123.9,230.4,126.5,227.1,126.5z"/>
	<path fill="#FFFFFF" d="M177.8,112.3h-8c-0.7,0-1.3-0.6-1.3-1.3l0,0c0-0.7,0.6-1.3,1.3-1.3h8c0.7,0,1.3,0.6,1.3,1.3l0,0
		C179,111.7,178.4,112.3,177.8,112.3z"/>
	<path fill="#FFFFFF" d="M125.5,175.7c-0.2,2.6-0.2,44,0,46.2c0.6,1.3,7.4-3.6,10.2-4.3c3.1-0.8,7.9-0.8,10.3,1.3s14.8,12.8,28,12.8
		c1.1-17.8,0-57.8,0-57.8s-19.5-0.4-22.4,0c-2,1-2.3,3.1-5.3,5.8c-2.9,2.7-12.3,1.2-14.6,0.3C129.5,179.3,126,174.6,125.5,175.7z"/>
	<path fill="#FFFFFF" d="M221.7,175.7c0.2,2.6,0.2,44,0,46.2c-0.6,1.3-7.4-3.6-10.2-4.3c-3.1-0.8-7.9-0.8-10.3,1.3
		c-2.4,2.1-14.8,12.8-28,12.8c-1.1-17.8,0-57.8,0-57.8s19.5-0.4,22.4,0c2,1,2.3,3.1,5.3,5.8c2.9,2.7,12.3,1.2,14.6,0.3
		C217.7,179.3,221.2,174.6,221.7,175.7z"/>
	<g>
		<path fill="none" d="M173.7,291.6c18.1,0,35.3-4,50.8-11.2c12.7-5.9,24.3-14,34.1-23.7c16.3-16.1,28-36.8,33-60
			c1.8-8.3,2.8-16.9,2.8-25.7c0-62.1-46.9-113.2-107.1-119.9c-4.5-0.5-9-0.8-13.6-0.8c-62.5,0-113.9,47.5-120.1,108.3
			c-0.4,4.1-0.6,8.2-0.6,12.4c0,36.8,16.4,69.7,42.3,91.8C116.4,280.8,143.8,291.6,173.7,291.6z"/>
		<path fill="#414042" d="M173.7,50.2c4.6,0,9.1,0.3,13.6,0.8c9.7-8.8,23.8-21.6,36.7-33.3c-16-5.3-33-8.2-50.8-8.2
			c-5.1,0-10.1,0.2-15.1,0.7c-7.6,6.2-16.6,13.2-24.8,18.9c-13,9-28.1,17-43.7,26.3c-10.3,6.1-35.3,18.8-51.2,26.7
			c-16.8,25.5-26.6,55.9-26.6,88.7c0,8.3,0.6,16.5,1.8,24.4l39.9-36.8C59.8,97.7,111.2,50.2,173.7,50.2z"/>
		<path fill="#FDE900" d="M53.8,279.3l41.5-16.6C69.4,240.6,53,207.7,53,170.9c0-4.2,0.2-8.3,0.6-12.4l-39.9,36.8
			C18.6,227.4,33,256.4,53.8,279.3z"/>
		<path fill="#197DBD" d="M294.4,170.9c0,8.8-1,17.4-2.8,25.7l42.1-9.6c0.5-5.3,0.8-10.7,0.8-16.2C334.6,99.5,288.3,39,224,17.7
			c-12.9,11.6-27,24.4-36.7,33.3C247.6,57.7,294.4,108.8,294.4,170.9z"/>
		<path fill="#FDE900" d="M133.3,29.2c8.2-5.7,17.2-12.7,24.8-18.9c-50,4.6-93.4,32.1-119.7,71.9c15.8-7.9,40.9-20.5,51.2-26.7
			C105.2,46.2,120.4,38.1,133.3,29.2z"/>
		<path fill="#E32226" d="M173.7,291.6c-29.9,0-57.3-10.9-78.4-28.9l-41.5,16.6c27.8,30.7,67.3,50.6,111.5,52.7
			c17.5-16.9,37.7-35,59.2-51.6C209,287.6,191.8,291.6,173.7,291.6z"/>
		<path fill="#E32226" d="M258.6,256.7c21.4-13.3,43.7-23.8,65.7-29c4.8-12.8,8.1-26.5,9.5-40.6l-42.1,9.6
			C286.6,219.9,274.9,240.6,258.6,256.7z"/>
		<path fill="#07A456" d="M224.5,280.5c-21.6,16.5-41.7,34.7-59.2,51.6c2.6,0.1,5.3,0.2,8,0.2c69.1,0,128.1-43.5,151-104.5
			c-22,5.3-44.2,15.7-65.7,29C248.8,266.5,237.2,274.5,224.5,280.5z"/>
	</g>
	<g>
		<path fill="#FFFFFF" d="M438.1,147c-3.3-2.8-6.8-4.9-10.4-6.3c-3.7-1.4-7.5-2.1-11.5-2.1c-7.8,0-14.2,2.5-19.1,7.5
			c-4.9,5-7.3,11.5-7.3,19.5c0,7.7,2.4,14.1,7.2,19.1c4.8,5,10.8,7.5,18,7.5c4.2,0,8.3-0.7,12.1-2.2c3.8-1.5,7.5-3.8,11-6.8v13.1
			c-3.1,2.2-6.5,3.9-10.2,5c-3.7,1.1-7.7,1.7-12,1.7c-5.5,0-10.5-0.9-15.2-2.7s-8.7-4.4-12.2-7.9c-3.5-3.4-6.2-7.4-8-12.1
			c-1.9-4.6-2.8-9.6-2.8-14.8c0-5.2,0.9-10.2,2.8-14.8c1.9-4.6,4.6-8.7,8.1-12.1c3.5-3.5,7.6-6.2,12.2-8s9.6-2.7,14.9-2.7
			c4.2,0,8.2,0.6,12,1.8s7.5,3.1,11.1,5.5L438.1,147z"/>
		<path fill="#FFFFFF" d="M454.9,169.2v32H444v-71.5h16.2c4.8,0,8.4,0.3,11.1,0.9c2.6,0.6,4.9,1.6,6.7,3.1c2.2,1.7,3.9,4,5.1,6.7
			c1.2,2.7,1.8,5.7,1.8,9c0,5.7-1.4,10.2-4.2,13.5c-2.8,3.2-6.9,5.2-12.3,5.8l24.6,32.5H480l-23.8-32H454.9z M455.7,160.1h2.1
			c6.2,0,10.2-0.7,12.3-2.1c2-1.4,3-4,3-7.6c0-3.9-1.1-6.7-3.2-8.3s-6.2-2.4-12-2.4h-2.1V160.1z"/>
		<path fill="#FFFFFF" d="M491.3,129.7h11.5v43.4c0,6.4,1.5,11.3,4.5,14.5c3,3.2,7.4,4.9,13.4,4.9c5.9,0,10.3-1.6,13.3-4.9
			c3-3.2,4.5-8.1,4.5-14.5v-43.4H550v44.5c0,9.7-2.4,16.9-7.3,21.7c-4.9,4.8-12.2,7.2-22.1,7.2c-9.8,0-17.2-2.4-22-7.2
			c-4.9-4.8-7.3-12-7.3-21.7V129.7z"/>
		<path fill="#FFFFFF" d="M557.5,201.1v-71.5h15.7c10.2,0,17.4,0.5,21.5,1.5s7.8,2.7,10.9,5.2c4.1,3.2,7.3,7.2,9.4,12.2
			c2.1,4.9,3.2,10.6,3.2,16.9s-1.1,12-3.2,16.9c-2.1,4.9-5.3,8.9-9.4,12.1c-3.1,2.4-6.7,4.1-10.7,5.2c-4,1-10.2,1.5-18.6,1.5h-3.1
			H557.5z M569.1,190.6h9.8c5.4,0,9.4-0.4,12.1-1.1c2.7-0.7,5-1.9,7-3.6c2.7-2.3,4.7-5.2,6.1-8.6c1.4-3.4,2-7.4,2-12
			c0-4.6-0.7-8.6-2-12c-1.4-3.4-3.4-6.3-6.1-8.6c-2-1.7-4.4-2.9-7.3-3.6c-2.8-0.7-7.2-1.1-13.2-1.1h-4.2h-4.2V190.6z"/>
		<path fill="#FFFFFF" d="M623,201.1v-71.5h39.9v9.9h-28.3v17.9h28.3v10.2h-28.3v23.1h28.3v10.4H623z"/>
		<path fill="#FFFFFF" d="M762.7,165.5c0,5.1-1,9.9-2.9,14.4c-1.9,4.5-4.7,8.6-8.3,12.1c-3.7,3.5-7.8,6.3-12.5,8.2
			c-4.6,1.9-9.5,2.8-14.6,2.8c-5.1,0-10.1-1-14.7-2.9c-4.7-1.9-8.8-4.6-12.4-8.1c-3.6-3.5-6.4-7.6-8.3-12.1
			c-1.9-4.5-2.8-9.3-2.8-14.5c0-5.1,0.9-9.9,2.8-14.5c1.9-4.5,4.7-8.6,8.3-12.2c3.6-3.5,7.8-6.3,12.4-8.1c4.6-1.9,9.5-2.8,14.7-2.8
			c5.1,0,10,0.9,14.6,2.8c4.6,1.9,8.7,4.6,12.4,8.1c3.6,3.6,6.4,7.7,8.3,12.2S762.7,160.5,762.7,165.5z M750.6,165.5
			c0-3.6-0.7-7-2-10.3c-1.3-3.3-3.2-6.2-5.7-8.7c-2.4-2.5-5.2-4.4-8.4-5.8c-3.2-1.4-6.5-2-10-2s-6.9,0.7-10,2
			c-3.2,1.3-6,3.3-8.5,5.8c-2.5,2.5-4.4,5.4-5.7,8.6c-1.3,3.3-2,6.7-2,10.4c0,3.6,0.7,7,2,10.3c1.3,3.2,3.2,6.1,5.7,8.6
			c2.5,2.5,5.3,4.5,8.4,5.8c3.2,1.3,6.5,2,10.1,2c3.5,0,6.8-0.7,9.9-2c3.1-1.3,6-3.3,8.5-5.8c2.5-2.5,4.4-5.4,5.7-8.7
			C749.9,172.5,750.6,169.1,750.6,165.5z"/>
		<path fill="#FFFFFF" d="M767.7,201.1v-71.5h11.6v71.5H767.7z"/>
		<path fill="#FFFFFF" d="M787.5,201.1v-71.5h11.6v61.1h26v10.4H787.5z"/>
	</g>
	<g>
		<path fill="#FFFFFF" d="M391.7,259v32.1h-10.9v-71.5h17.6c5.2,0,9,0.3,11.5,0.9c2.5,0.6,4.6,1.5,6.4,2.8c2.2,1.7,4,3.9,5.3,6.7
			c1.3,2.8,1.9,5.9,1.9,9.3c0,3.4-0.6,6.5-1.9,9.4c-1.3,2.9-3,5.1-5.3,6.7c-1.8,1.3-4,2.2-6.4,2.8c-2.5,0.6-6.3,0.8-11.5,0.8h-2.3
			H391.7z M392.4,249.5h3c6.4,0,10.7-0.7,12.9-2.1c2.1-1.4,3.2-3.9,3.2-7.4c0-3.8-1.1-6.5-3.4-8.1s-6.5-2.3-12.7-2.3h-3V249.5z"/>
		<path fill="#FFFFFF" d="M427.9,291.1v-71.5h11.6v71.5H427.9z"/>
		<path fill="#FFFFFF" d="M460.8,259v32.1h-10.9v-71.5h17.6c5.2,0,9,0.3,11.5,0.9c2.5,0.6,4.6,1.5,6.4,2.8c2.2,1.7,4,3.9,5.3,6.7
			c1.3,2.8,1.9,5.9,1.9,9.3c0,3.4-0.6,6.5-1.9,9.4c-1.3,2.9-3,5.1-5.3,6.7c-1.8,1.3-4,2.2-6.4,2.8c-2.5,0.6-6.3,0.8-11.5,0.8h-2.3
			H460.8z M461.5,249.5h3c6.4,0,10.7-0.7,12.9-2.1c2.1-1.4,3.2-3.9,3.2-7.4c0-3.8-1.1-6.5-3.4-8.1s-6.5-2.3-12.7-2.3h-3V249.5z"/>
		<path fill="#FFFFFF" d="M496.8,291.1v-71.5h39.9v9.9h-28.3v17.9h28.3v10.2h-28.3v23.1h28.3v10.4H496.8z"/>
		<path fill="#FFFFFF" d="M543.8,291.1v-71.5h11.6v61.1h26v10.4H543.8z"/>
		<path fill="#FFFFFF" d="M584.7,291.1v-71.5h11.6v71.5H584.7z"/>
		<path fill="#FFFFFF" d="M606.7,291.1v-74.3l45.4,43.7c1.2,1.2,2.5,2.6,3.8,4c1.3,1.4,2.6,3,4,4.7v-49.6h10.7v74.3l-46.3-44.5
			c-1.2-1.2-2.4-2.5-3.6-3.8c-1.2-1.3-2.3-2.7-3.3-4.2v49.7H606.7z"/>
		<path fill="#FFFFFF" d="M680.7,291.1v-71.5h39.9v9.9h-28.3v17.9h28.3v10.2h-28.3v23.1h28.3v10.4H680.7z"/>
	</g>
	<g>
		<g>
			<path fill="#A7A9AC" d="M378.3,113.1V66.6h23v4h-18.8v14.5h18.8v4h-18.8v20h18.8v4H378.3z"/>
			<path fill="#A7A9AC" d="M407.6,113.1L428,64.8l19.6,48.3H443L437,97.4h-19l-6.2,15.7H407.6z M419.5,93.7h16.2l-7.9-20.2
				L419.5,93.7z"/>
			<path fill="#A7A9AC" d="M451.5,105.3l3.6-1.9c0.7,2.3,1.8,4.1,3.5,5.3c1.7,1.3,3.7,1.9,6,1.9c2.9,0,5.2-0.9,6.9-2.6
				c1.7-1.7,2.5-4.1,2.5-7.2c0-2.2-0.6-4.1-1.7-5.6c-1.1-1.5-3.5-3.2-7.2-5.1c-4.7-2.5-7.8-4.7-9.3-6.5c-1.5-1.9-2.3-4.1-2.3-6.8
				c0-3.3,1.1-6,3.3-8.1c2.2-2.1,5.1-3.1,8.7-3.1c2.3,0,4.4,0.5,6.1,1.5c1.7,1,3.1,2.5,4.2,4.4l-3.3,2c-0.7-1.3-1.6-2.3-2.9-3
				c-1.2-0.7-2.7-1-4.4-1c-2.3,0-4.1,0.7-5.5,2c-1.4,1.3-2,3.2-2,5.4c0,3.3,2.7,6.3,8.1,9.1c1,0.5,1.7,0.9,2.2,1.2
				c4,2.2,6.6,4.2,7.9,6.2c1.3,1.9,2,4.4,2,7.5c0,4.2-1.2,7.5-3.6,9.9c-2.4,2.4-5.7,3.7-9.9,3.7c-3,0-5.7-0.8-7.8-2.3
				C454.4,110.6,452.7,108.3,451.5,105.3z"/>
			<path fill="#A7A9AC" d="M498,113.1V70.6h-12.8v-4H515v4h-12.8v42.5H498z"/>
			<path fill="#A7A9AC" d="M539,113.1l20.4-48.3l19.5,48.3h-4.6l-5.9-15.7h-19l-6.2,15.7H539z M550.8,93.7H567l-7.9-20.2L550.8,93.7
				z"/>
			<path fill="#A7A9AC" d="M586.4,113.1V66.6h23v4h-18.8v14.5h18.1v4h-18.1v24H586.4z"/>
			<path fill="#A7A9AC" d="M649.4,113.1h-5.1L628,91h-2.5v22.2h-4.2V66.6h8.5c5,0,8.8,1,11.3,3.1c2.5,2.1,3.8,5.3,3.8,9.5
				c0,3.6-1.1,6.5-3.2,8.5c-2.1,2.1-5.1,3.1-8.9,3.1L649.4,113.1z M625.4,70.3v17.2h4.3c3.9,0,6.7-0.6,8.2-1.9
				c1.6-1.3,2.3-3.4,2.3-6.4c0-3.2-0.8-5.5-2.4-6.8c-1.6-1.4-4.3-2-8.2-2H625.4z"/>
			<path fill="#A7A9AC" d="M657.8,113.1V66.6h4.2v46.5H657.8z"/>
			<path fill="#A7A9AC" d="M713.2,75.1c-2.3-2-4.7-3.5-7.1-4.4s-5-1.4-7.6-1.4c-6,0-10.9,1.9-14.6,5.7c-3.8,3.8-5.6,8.8-5.6,14.9
				c0,3.1,0.5,5.8,1.4,8.3c0.9,2.5,2.3,4.6,4.2,6.5c1.9,1.9,4,3.3,6.4,4.3c2.4,1,5,1.5,7.7,1.5c2.7,0,5.3-0.5,7.8-1.4
				c2.5-0.9,4.9-2.3,7.2-4v5c-2.3,1.4-4.7,2.5-7.3,3.2c-2.5,0.8-5.1,1.1-7.6,1.1c-3.4,0-6.6-0.6-9.6-1.8c-3.1-1.2-5.7-2.9-7.9-5.1
				c-2.3-2.2-4-4.8-5.1-7.8c-1.2-3-1.7-6.2-1.7-9.7c0-3.5,0.6-6.7,1.8-9.7c1.2-3,2.9-5.6,5.2-7.8c2.2-2.1,4.8-3.8,7.9-5
				c3.1-1.2,6.3-1.8,9.6-1.8c3,0,5.7,0.4,8.2,1.2s4.8,2,6.9,3.7L713.2,75.1z"/>
			<path fill="#A7A9AC" d="M718.3,113.1l20.4-48.3l19.6,48.3h-4.6l-5.9-15.7h-19l-6.2,15.7H718.3z M730.2,93.7h16.2l-7.9-20.2
				L730.2,93.7z"/>
			<path fill="#A7A9AC" d="M765.7,113.1V64.7l32.9,38.9V66.6h3.9v47.8l-32.9-38.9v37.6H765.7z"/>
		</g>
	</g>
</g>
<g id="Layer_2">
</g>
</svg>
