<?xml version="1.0" encoding="utf-8"?>
<!-- Generator: Adobe Illustrator 19.2.0, SVG Export Plug-In . SVG Version: 6.00 Build 0)  -->
<svg version="1.1" id="Layer_1" xmlns="http://www.w3.org/2000/svg" xmlns:xlink="http://www.w3.org/1999/xlink" x="0px" y="0px"
	 width="1792px" height="347.2px" viewBox="0 0 1792 347.2" enable-background="new 0 0 1792 347.2" xml:space="preserve">
<g>
	<path fill="#E22428" d="M85.2,163.8c0-17.6,0-44.2,0-61.1c0-9.6,14.1-14.5,14.1-14.5v-9H67.4h-7.2H28.2v9c0,0,14.1,4.9,14.1,14.5
		c0,16.9,0,43.5,0,61.1c0,10.7,0,18.1,0,18.1c0,17.6,0,44.2,0,61.1c0,9.6-14.1,14.5-14.1,14.5v9h31.9h7.2h31.9v-9
		c0,0-14.1-4.9-14.1-14.5c0-16.9,0-43.5,0-61.1C85.2,181.9,85.2,174.5,85.2,163.8z"/>
	<path fill="#1D7DBD" d="M203.3,93.2c14.8,0,28.1,15.7,28.1,30.2c8.7,0,19.1-0.2,19.1-0.2V83.7c0,0-18.6-7.1-52.8-7.1
		s-80.9,24.4-82.2,93.7c1.4,69.4,24.1,98.3,82.2,98.3c34.2,0,52.8-7.4,52.8-7.4v-40.9c0,0-10.3-0.2-19.1-0.2
		c0,14.5-13.3,32.5-28.1,32.5c-34.1-0.1-43.8-27-43.8-82.3S178.9,93.2,203.3,93.2z"/>
	<path fill="#000000" d="M394.6,122.8V83c0,0-26-6.4-53.7-6.4C313,76.6,276,92.2,276,126c0,64.1,79.5,54.2,79.5,98.5c0,30.3-25.7,27.3-29.9,27.3
		s-33.3-5.3-33.3-31.9h-19.1v41.8c0,0,23.9,6.9,67.5,6.9c6.9,0,56-4.1,56-55.1c0-58.6-80.5-55.8-80.5-96.9c0,0-1.7-23.2,27-23.2
		c30.3,0,30.9,21.1,30.9,29.5L394.6,122.8z"/>
</g>
<g>
	<path fill="#000000" d="M1135.7,77.6l-39.3,135.5l-37.6-135.5h-58.9l-40,129.8L919.6,77.6h-44.3c0,0-4.9,0-12.3,0c-18.1,0-51.8,0-69.2,0
		c-39.3,0-79.7,34-79.7,70.7c0-6.7,0-11.8,0-14.5c0-17.8-14.2-56.2-55-56.2c-47.5,0-120.7,0-120.7,0v190.2h48.8V119.5
		c0,0,22.9,0,44.4,0c21.5,0,33.7,9.7,33.7,34.6s0,113.6,0,113.6h48.8c0,0,0-28.9,0-60c0,24,32.7,60,61,60c24.6,0,100.2,0,100.2,0
		v-35.6c0,0-57.3,0-77.9,0c-14.3,0-33-12.5-33-34.5c35.6,0,85.2,0,110.9,0v-22.9v-4.4v-12.2c-25.6,0-75.2,0-110.9,0
		c0-18.4,15.6-39.8,35.6-39.8c16.5,0,59.8,0,76.7,0l50.4,149.3h63.9l36.8-125.6l37.8,125.6h64.6l62.6-190.2H1135.7z"/>
	<path fill="#E22428" d="M1727.7,77.6c-47.5,0-123.4,0-123.4,0v49.1c-4.9-26.9-32.8-49.1-67.1-49.1h-108.9v40.9h101.9
		c12,0,24.6,10.7,24.6,21.3v15.6h-85.6c-28.4,0-45.4,18.4-50.9,40.3V11h-51.3v128.4c-10.1-34.1-36.9-61.8-80.2-61.8h-81.6
		l-25.6,79.2v178.8h49.6V266h57.6c43.4,0,70.1-27.7,80.2-61.8v64.4h51.3v-40.3c5.5,22,22.5,40.3,50.9,40.3h186.5V119.5
		c0,0,22.9,0,44.4,0c21.5,0,33.7,9.7,33.7,34.6s0,114.5,0,114.5h48.8c0,0,0-117.2,0-134.9C1782.8,116,1768.6,77.6,1727.7,77.6z
		 M1270.2,228.4h-40.6V116.2h40.6C1334.1,116.2,1334.1,228.4,1270.2,228.4z M1554.5,228.4h-62.6c-30.6,0-30.6-37,0-37h62.6V228.4z"
		/>
</g>
</svg>
