<?xml version="1.0" encoding="utf-8"?>
<!-- Generator: Adobe Illustrator 19.2.0, SVG Export Plug-In . SVG Version: 6.00 Build 0)  -->
<svg version="1.1" id="Layer_1" xmlns="http://www.w3.org/2000/svg" xmlns:xlink="http://www.w3.org/1999/xlink" x="0px" y="0px"
	 width="1792px" height="1792px" viewBox="0 0 1792 1792" style="enable-background:new 0 0 1792 1792;" xml:space="preserve">
<path d="M1123.2,808.3c0-84.5-30-156.8-90.1-216.8c-60.1-60.1-132.3-90.1-216.8-90.1s-156.8,30-216.8,90.1
	c-60.1,60.1-90.1,132.3-90.1,216.8s30,156.8,90.1,216.8c60.1,60.1,132.3,90.1,216.8,90.1s156.8-30,216.8-90.1
	C1093.1,965.1,1123.2,892.8,1123.2,808.3z M1473.9,1378.2c0,23.7-8.7,44.3-26,61.7s-37.9,26-61.7,26c-24.7,0-45.2-8.7-61.7-26
	l-235-234.3c-81.7,56.6-172.8,84.9-273.3,84.9c-65.3,0-127.8-12.7-187.3-38s-111-59.6-154.1-102.8c-43.2-43.2-77.4-94.5-102.8-154.1
	s-38-122-38-187.3s12.7-127.8,38-187.3s59.6-111,102.8-154.1s94.5-77.4,154.1-102.8s122-38,187.3-38s127.8,12.7,187.3,38
	c59.6,25.3,111,59.6,154.1,102.8s77.4,94.5,102.8,154.1c25.3,59.6,38,122,38,187.3c0,100.5-28.3,191.6-84.9,273.3l235,235
	C1465.4,1333.5,1473.9,1354,1473.9,1378.2z"/>
<path d="M580,0H204H20C9,0,0,9,0,20v184v376c0,11,9,20,20,20h184c11,0,20-9,20-20V224h356c11,0,20-9,20-20V20C600,9,591,0,580,0z"/>
<path d="M1212,1792h376h184c11,0,20-9,20-20v-184v-376c0-11-9-20-20-20h-184c-11,0-20,9-20,20v356h-356c-11,0-20,9-20,20v184
	C1192,1783,1201,1792,1212,1792z"/>
<path d="M0,1212l0,376l0,184c0,11,9,20,20,20h184h376c11,0,20-9,20-20v-184c0-11-9-20-20-20H224v-356c0-11-9-20-20-20H20
	C9,1192,0,1201,0,1212z"/>
<path d="M1792,580V204l0-184c0-11-9-20-20-20l-184,0l-376,0c-11,0-20,9-20,20l0,184c0,11,9,20,20,20h356v356c0,11,9,20,20,20h184
	C1783,600,1792,591,1792,580z"/>
</svg>
