<svg xmlns="http://www.w3.org/2000/svg"><symbol id="area-chart" viewBox="0 0 2048 1792"><path d="M2048 1536v128H0V128h128v1408h1920zM1664 512l256 896H256V832l448-576 576 576z"/></symbol><symbol id="arrow" viewBox="0 0 1792 1792"><path d="m1029.9 1611.5-277.4-554.7-278.2 285.8 15.6-1181.7 859.9 750.4-371 37.1 270 553.6-218.9 109.5zM768.5 954.4l288.3 576.6 112.1-56.1-281.8-577.6 318.8-31.9-657.7-574-11.9 901.5 232.2-238.5z"/></symbol><symbol id="at" viewBox="0 0 512 512"><path d="M256 8C118.941 8 8 118.919 8 256c0 137.059 110.919 248 248 248 48.154 0 95.342-14.14 135.408-40.223 12.005-7.815 14.625-24.288 5.552-35.372l-10.177-12.433c-7.671-9.371-21.179-11.667-31.373-5.129C325.92 429.757 291.314 440 256 440c-101.458 0-184-82.542-184-184S154.542 72 256 72c100.139 0 184 57.619 184 160 0 38.786-21.093 79.742-58.17 83.693-17.349-.454-16.91-12.857-13.476-30.024l23.433-121.11C394.653 149.75 383.308 136 368.225 136h-44.981a13.518 13.518 0 0 0-13.432 11.993l-.01.092c-14.697-17.901-40.448-21.775-59.971-21.775-74.58 0-137.831 62.234-137.831 151.46 0 65.303 36.785 105.87 96 105.87 26.984 0 57.369-15.637 74.991-38.333 9.522 34.104 40.613 34.103 70.71 34.103C462.609 379.41 504 307.798 504 232 504 95.653 394.023 8 256 8zm-21.68 304.43c-22.249 0-36.07-15.623-36.07-40.771 0-44.993 30.779-72.729 58.63-72.729 22.292 0 35.601 15.241 35.601 40.77 0 45.061-33.875 72.73-58.161 72.73z"/></symbol><symbol id="bar-chart" viewBox="0 0 2048 1792"><path d="M640 896v512H384V896h256zm384-512v1024H768V384h256zm1024 1152v128H0V128h128v1408h1920zm-640-896v768h-256V640h256zm384-384v1152h-256V256h256z"/></symbol><symbol id="bars" viewBox="0 0 1792 1792"><path d="M1664 1344v128c0 17.3-6.3 32.3-19 45s-27.7 19-45 19H192c-17.3 0-32.3-6.3-45-19s-19-27.7-19-45v-128c0-17.3 6.3-32.3 19-45s27.7-19 45-19h1408c17.3 0 32.3 6.3 45 19s19 27.7 19 45zm0-512v128c0 17.3-6.3 32.3-19 45s-27.7 19-45 19H192c-17.3 0-32.3-6.3-45-19s-19-27.7-19-45V832c0-17.3 6.3-32.3 19-45s27.7-19 45-19h1408c17.3 0 32.3 6.3 45 19s19 27.7 19 45zm0-512v128c0 17.3-6.3 32.3-19 45s-27.7 19-45 19H192c-17.3 0-32.3-6.3-45-19s-19-27.7-19-45V320c0-17.3 6.3-32.3 19-45s27.7-19 45-19h1408c17.3 0 32.3 6.3 45 19s19 27.7 19 45z"/></symbol><symbol id="bullhorn" viewBox="0 0 1792 1792"><path d="M1664 640q53 0 90.5 37.5T1792 768t-37.5 90.5T1664 896v384q0 52-38 90t-90 38q-417-347-812-380-58 19-91 66t-31 100.5 40 92.5q-20 33-23 65.5t6 58 33.5 55 48 50T768 1566q-29 58-111.5 83T488 1660.5 356 1605q-7-23-29.5-87.5t-32-94.5-23-89-15-101 3.5-98.5 22-110.5H160q-66 0-113-47T0 864V672q0-66 47-113t113-47h480q435 0 896-384 52 0 90 38t38 90v384zm-128 604V290q-394 302-768 343v270q377 42 768 341z"/></symbol><symbol id="caret-down" viewBox="0 0 320 512"><path d="M31.3 192h257.3c17.8 0 26.7 21.5 14.1 34.1L174.1 354.8c-7.8 7.8-20.5 7.8-28.3 0L17.2 226.1C4.6 213.5 13.5 192 31.3 192z"/></symbol><symbol id="caret-up" viewBox="0 0 1792 1792"><path d="M1408 1216q0 26-19 45t-45 19H448q-26 0-45-19t-19-45 19-45l448-448q19-19 45-19t45 19l448 448q19 19 19 45z"/></symbol><symbol id="check" viewBox="0 0 1792 1792"><path d="M1671 566q0 40-28 68l-724 724-136 136q-28 28-68 28t-68-28l-136-136-362-362q-28-28-28-68t28-68l136-136q28-28 68-28t68 28l294 295 656-657q28-28 68-28t68 28l136 136q28 28 28 68z"/></symbol><symbol id="chevron-double" viewBox="0 0 2428.1 1792"><path d="m1363 877-742 742c-12.7 12.7-27.7 19-45 19s-32.3-6.3-45-19l-166-166c-12.7-12.7-19-27.7-19-45s6.3-32.3 19-45l531-531-531-531c-12.7-12.7-19-27.7-19-45s6.3-32.3 19-45L531 45c12.7-12.7 27.7-19 45-19s32.3 6.3 45 19l742 742c12.7 12.7 19 27.7 19 45s-6.3 32.3-19 45z"/><path d="m2123 877-742 742c-12.7 12.7-27.7 19-45 19s-32.3-6.3-45-19l-166-166c-12.7-12.7-19-27.7-19-45s6.3-32.3 19-45l531-531-531-531c-12.7-12.7-19-27.7-19-45s6.3-32.3 19-45l166-166c12.7-12.7 27.7-19 45-19s32.3 6.3 45 19l742 742c12.7 12.7 19 27.7 19 45s-6.3 32.3-19 45z"/></symbol><symbol id="chevron" viewBox="0 0 1792 1792"><path d="m1363 877-742 742q-19 19-45 19t-45-19l-166-166q-19-19-19-45t19-45l531-531-531-531q-19-19-19-45t19-45L531 45q19-19 45-19t45 19l742 742q19 19 19 45t-19 45z"/></symbol><symbol id="circle-notch" viewBox="0 0 1792 1792"><path d="M1760 896q0 176-68.5 336t-184 275.5-275.5 184-336 68.5-336-68.5-275.5-184-184-275.5T32 896q0-213 97-398.5T394 192 768 41v228q-221 45-366.5 221T256 896q0 130 51 248.5t136.5 204 204 136.5 248.5 51 248.5-51 204-136.5 136.5-204 51-248.5q0-230-145.5-406T1024 269V41q206 31 374 151t265 305.5 97 398.5z"/></symbol><symbol id="circle" viewBox="0 0 1792 1792"><path d="M1664 896q0 209-103 385.5T1281.5 1561 896 1664t-385.5-103T231 1281.5 128 896t103-385.5T510.5 231 896 128t385.5 103T1561 510.5 1664 896z"/></symbol><symbol id="cloud-upload" viewBox="0 0 2048 1792"><path d="M1344 864q0-14-9-23L983 489q-9-9-23-9t-23 9L586 840q-10 12-10 24 0 14 9 23t23 9h224v352q0 13 9.5 22.5t22.5 9.5h192q13 0 22.5-9.5t9.5-22.5V896h224q13 0 22.5-9.5t9.5-22.5zm640 288q0 159-112.5 271.5T1600 1536H512q-185 0-316.5-131.5T64 1088q0-130 70-240t188-165q-2-30-2-43 0-212 150-362t362-150q156 0 285.5 87T1306 446q71-62 166-62 106 0 181 75t75 181q0 76-41 138 130 31 213.5 135.5T1984 1152z"/></symbol><symbol id="code" viewBox="0 0 640 512"><path d="m278.9 511.5-61-17.7c-6.4-1.8-10-8.5-8.2-14.9L346.2 8.7c1.8-6.4 8.5-10 14.9-8.2l61 17.7c6.4 1.8 10 8.5 8.2 14.9L293.8 503.3c-1.9 6.4-8.5 10.1-14.9 8.2zm-114-112.2 43.5-46.4c4.6-4.9 4.3-12.7-.8-17.2L117 256l90.6-79.7c5.1-4.5 5.5-12.3.8-17.2l-43.5-46.4c-4.5-4.8-12.1-5.1-17-.5L3.8 247.2c-5.1 4.7-5.1 12.8 0 17.5l144.1 135.1c4.9 4.6 12.5 4.4 17-.5zm327.2.6 144.1-135.1c5.1-4.7 5.1-12.8 0-17.5L492.1 112.1c-4.8-4.5-12.4-4.3-17 .5L431.6 159c-4.6 4.9-4.3 12.7.8 17.2L523 256l-90.6 79.7c-5.1 4.5-5.5 12.3-.8 17.2l43.5 46.4c4.5 4.9 12.1 5.1 17 .6z"/></symbol><symbol id="download" viewBox="0 0 1792 1792"><path d="M1344 1344q0-26-19-45t-45-19-45 19-19 45 19 45 45 19 45-19 19-45zm256 0q0-26-19-45t-45-19-45 19-19 45 19 45 45 19 45-19 19-45zm128-224v320q0 40-28 68t-68 28H160q-40 0-68-28t-28-68v-320q0-40 28-68t68-28h465l135 136q58 56 136 56t136-56l136-136h464q40 0 68 28t28 68zm-325-569q17 41-14 70l-448 448q-18 19-45 19t-45-19L403 621q-31-29-14-70 17-39 59-39h256V64q0-26 19-45t45-19h256q26 0 45 19t19 45v448h256q42 0 59 39z"/></symbol><symbol id="edit" viewBox="0 0 1792 1792"><path d="m888 1184 116-116-152-152-116 116v56h96v96h56zm440-720q-16-16-33 1L945 815q-17 17-1 33t33-1l350-350q17-17 1-33zm80 594v190q0 119-84.5 203.5T1120 1536H288q-119 0-203.5-84.5T0 1248V416q0-119 84.5-203.5T288 128h832q63 0 117 25 15 7 18 23 3 17-9 29l-49 49q-14 14-32 8-23-6-45-6H288q-66 0-113 47t-47 113v832q0 66 47 113t113 47h832q66 0 113-47t47-113v-126q0-13 9-22l64-64q15-15 35-7t20 29zm-96-738 288 288-672 672H640V992zm444 132-92 92-288-288 92-92q28-28 68-28t68 28l152 152q28 28 28 68t-28 68z"/></symbol><symbol id="envelope" viewBox="0 0 1792 1792"><path d="M1792 710v794q0 66-47 113t-113 47H160q-66 0-113-47T0 1504V710q44 49 101 87 362 246 497 345 57 42 92.5 65.5t94.5 48 110 24.5h2q51 0 110-24.5t94.5-48 92.5-65.5q170-123 498-345 57-39 100-87zm0-294q0 79-49 151t-122 123q-376 261-468 325-10 7-42.5 30.5t-54 38-52 32.5-57.5 27-50 9h-2q-23 0-50-9t-57.5-27-52-32.5-54-38T639 1015q-91-64-262-182.5T172 690q-62-42-117-115.5T0 438q0-78 41.5-130T160 256h1472q65 0 112.5 47t47.5 113z"/></symbol><symbol id="exchange" viewBox="0 0 512 512"><path d="M0 168v-16c0-13.255 10.745-24 24-24h360V80c0-21.367 25.899-32.042 40.971-16.971l80 80c9.372 9.373 9.372 24.569 0 33.941l-80 80C409.956 271.982 384 261.456 384 240v-48H24c-13.255 0-24-10.745-24-24zm488 152H128v-48c0-21.314-25.862-32.08-40.971-16.971l-80 80c-9.372 9.373-9.372 24.569 0 33.941l80 80C102.057 463.997 128 453.437 128 432v-48h360c13.255 0 24-10.745 24-24v-16c0-13.255-10.745-24-24-24z"/></symbol><symbol id="eye-slash" viewBox="0 0 1792 1792"><path d="m555 1335 78-141q-87-63-136-159t-49-203q0-121 61-225-229 117-381 353 167 258 427 375zm389-759q0-20-14-34t-34-14q-125 0-214.5 89.5T592 832q0 20 14 34t34 14 34-14 14-34q0-86 61-147t147-61q20 0 34-14t14-34zm363-191q0 7-1 9-106 189-316 567t-315 566l-49 89q-10 16-28 16-12 0-134-70-16-10-16-28 0-12 44-87-143-65-263.5-173T20 1029Q0 998 0 960t20-69q153-235 380-371t496-136q89 0 180 17l54-97q10-16 28-16 5 0 18 6t31 15.5 33 18.5 31.5 18.5T1291 358q16 10 16 27zm37 447q0 139-79 253.5T1056 1250l280-502q8 45 8 84zm448 128q0 35-20 69-39 64-109 145-150 172-347.5 267T896 1536l74-132q212-18 392.5-137T1664 960q-115-179-282-294l63-112q95 64 182.5 153T1772 891q20 34 20 69z"/></symbol><symbol id="eye" viewBox="0 0 1792 1792"><path d="M1664 960q-152-236-381-353 61 104 61 225 0 185-131.5 316.5T896 1280t-316.5-131.5T448 832q0-121 61-225-229 117-381 353 133 205 333.5 326.5T896 1408t434.5-121.5T1664 960zM944 576q0-20-14-34t-34-14q-125 0-214.5 89.5T592 832q0 20 14 34t34 14 34-14 14-34q0-86 61-147t147-61q20 0 34-14t14-34zm848 384q0 34-20 69-140 230-376.5 368.5T896 1536t-499.5-139T20 1029Q0 994 0 960t20-69q140-229 376.5-368T896 384t499.5 139T1772 891q20 35 20 69z"/></symbol><symbol id="file-csv" viewBox="0 0 384 512"><path d="M224 136V0H24C10.7 0 0 10.7 0 24v464c0 13.3 10.7 24 24 24h336c13.3 0 24-10.7 24-24V160H248c-13.2 0-24-10.8-24-24zm-96 144c0 4.42-3.58 8-8 8h-8c-8.84 0-16 7.16-16 16v32c0 8.84 7.16 16 16 16h8c4.42 0 8 3.58 8 8v16c0 4.42-3.58 8-8 8h-8c-26.51 0-48-21.49-48-48v-32c0-26.51 21.49-48 48-48h8c4.42 0 8 3.58 8 8v16zm44.27 104H160c-4.42 0-8-3.58-8-8v-16c0-4.42 3.58-8 8-8h12.27c5.95 0 10.41-3.5 10.41-6.62 0-1.3-.75-2.66-2.12-3.84l-21.89-18.77c-8.47-7.22-13.33-17.48-13.33-28.14 0-21.3 19.02-38.62 42.41-38.62H200c4.42 0 8 3.58 8 8v16c0 4.42-3.58 8-8 8h-12.27c-5.95 0-10.41 3.5-10.41 6.62 0 1.3.75 2.66 2.12 3.84l21.89 18.77c8.47 7.22 13.33 17.48 13.33 28.14.01 21.29-19 38.62-42.39 38.62zM256 264v20.8c0 20.27 5.7 40.17 16 56.88 10.3-16.7 16-36.61 16-56.88V264c0-4.42 3.58-8 8-8h16c4.42 0 8 3.58 8 8v20.8c0 35.48-12.88 68.89-36.28 94.09-3.02 3.25-7.27 5.11-11.72 5.11s-8.7-1.86-11.72-5.11c-23.4-25.2-36.28-58.61-36.28-94.09V264c0-4.42 3.58-8 8-8h16c4.42 0 8 3.58 8 8zm121-159L279.1 7c-4.5-4.5-10.6-7-17-7H256v128h128v-6.1c0-6.3-2.5-12.4-7-16.9z"/></symbol><symbol id="file-download" viewBox="0 0 384 512"><path d="M224 136V0H24C10.7 0 0 10.7 0 24v464c0 13.3 10.7 24 24 24h336c13.3 0 24-10.7 24-24V160H248c-13.2 0-24-10.8-24-24zm76.45 211.36-96.42 95.7c-6.65 6.61-17.39 6.61-24.04 0l-96.42-95.7C73.42 337.29 80.54 320 94.82 320H160v-80c0-8.84 7.16-16 16-16h32c8.84 0 16 7.16 16 16v80h65.18c14.28 0 21.4 17.29 11.27 27.36zM377 105 279.1 7c-4.5-4.5-10.6-7-17-7H256v128h128v-6.1c0-6.3-2.5-12.4-7-16.9z"/></symbol><symbol id="file-excel" viewBox="0 0 384 512"><path d="M224 136V0H24C10.7 0 0 10.7 0 24v464c0 13.3 10.7 24 24 24h336c13.3 0 24-10.7 24-24V160H248c-13.2 0-24-10.8-24-24zm60.1 106.5L224 336l60.1 93.5c5.1 8-.6 18.5-10.1 18.5h-34.9c-4.4 0-8.5-2.4-10.6-6.3C208.9 405.5 192 373 192 373c-6.4 14.8-10 20-36.6 68.8-2.1 3.9-6.1 6.3-10.5 6.3H110c-9.5 0-15.2-10.5-10.1-18.5l60.3-93.5-60.3-93.5c-5.2-8 .6-18.5 10.1-18.5h34.8c4.4 0 8.5 2.4 10.6 6.3 26.1 48.8 20 33.6 36.6 68.5 0 0 6.1-11.7 36.6-68.5 2.1-3.9 6.2-6.3 10.6-6.3H274c9.5-.1 15.2 10.4 10.1 18.4zM384 121.9v6.1H256V0h6.1c6.4 0 12.5 2.5 17 7l97.9 98c4.5 4.5 7 10.6 7 16.9z"/></symbol><symbol style="enable-background:new 0 0 384 512" id="file-geojson" viewBox="0 0 384 512"><path d="M140.2 255c-13.8 13.8-21.4 32.2-21.4 51.8 0 29.5 9.5 36.8 73.2 129 63.8-92.2 73.2-99.5 73.2-129 0-19.6-7.6-37.9-21.4-51.8-13.8-13.8-32.2-21.4-51.8-21.4s-37.9 7.6-51.8 21.4zm95.7 51.8c0 24.2-19.7 43.9-43.9 43.9s-43.9-19.7-43.9-43.9 19.7-43.9 43.9-43.9 43.9 19.7 43.9 43.9zM377 105 279.1 7c-4.5-4.5-10.6-7-17-7H256v128h128v-6.1c0-6.3-2.5-12.4-7-16.9z"/><path d="M162.7 306.8c0 16.2 13.1 29.3 29.3 29.3s29.3-13.1 29.3-29.3-13.1-29.3-29.3-29.3-29.3 13.2-29.3 29.3z"/><path d="M224 136V0H24C10.7 0 0 10.7 0 24v464c0 13.3 10.7 24 24 24h336c13.3 0 24-10.7 24-24V160H248c-13.2 0-24-10.8-24-24zm55.9 170.8c0 35.4-12.3 45.3-78.8 141.7-4.4 6.3-13.7 6.3-18.1 0-66.5-96.4-78.8-106.3-78.8-141.7 0-48.5 39.3-87.9 87.9-87.9s87.8 39.4 87.8 87.9z"/></symbol><symbol style="enable-background:new 0 0 384 512" id="file-ods" viewBox="0 0 384 512"><path d="M377 105 279.1 7c-4.5-4.5-10.6-7-17-7H256v128h128v-6.1c0-6.3-2.5-12.4-7-16.9zM102.4 288c-6 0-13 7.2-13 16v32c0 8.8 5 16 13 16s12-7.2 12-16v-32c0-8.8-6-16-12-16zm96.5 0h-2.8c-2 0-3.9 1.5-3.9 3.6 0 5-.6 15.4-.1 18.8.1.6-.1-.5.1 38.9 0 2.2.8 2.6 2.3 2.6h4.5c8.8 0 16-7.2 16-16v-32c0-4.4-1.8-8.4-4.7-11.3-4.7-4.5-10.3-4.6-11.4-4.6z"/><path d="M248 160c-13.2 0-24-10.8-24-24V0H24C10.7 0 0 10.7 0 24v464c0 13.3 10.7 24 24 24h336c13.3 0 24-10.7 24-24V160H248zM146.7 336c0 25.4-21.5 47.9-44.7 47.9-23.3 0-44.6-22.5-44.6-47.9v-32c0-25.4 21.3-47.9 44.6-47.9s44.7 22.5 44.7 47.9v32zm100.2 0c0 26.5-21.5 48-48 48h-29.7c-5.1 0-9.1-3.6-9.1-8V264c0-4.4 4.1-8 9.1-8h29.7c26.5 0 48 21.5 48 48v32zm37.3 48h-12.3c-4.4 0-8-3.6-8-8v-16c0-4.4 3.6-8 8-8h12.3c6 0 10.4-3.5 10.4-6.6 0-1.3-.7-2.7-2.1-3.8l-21.9-18.8c-8.5-7.2-13.3-17.5-13.3-28.1 0-21.3 19-38.6 42.4-38.6H312c4.4 0 8 3.6 8 8v16c0 4.4-3.6 8-8 8h-12.3c-6 0-10.4 3.5-10.4 6.6 0 1.3.7 2.6 2.1 3.8l21.9 18.8c8.5 7.2 13.3 17.5 13.3 28.1 0 21.3-19 38.6-42.4 38.6z"/></symbol><symbol id="filter" viewBox="0 0 1792 1792"><path d="M1595 295q17 41-14 70l-493 493v742q0 42-39 59-13 5-25 5-27 0-45-19l-256-256q-19-19-19-45V858L211 365q-31-29-14-70 17-39 59-39h1280q42 0 59 39z"/></symbol><symbol id="heart-beat" viewBox="0 0 1792 1792"><path d="M1280 1024h305q-5 6-10 10.5t-9 7.5l-3 4-623 600q-18 18-44 18t-44-18l-624-602q-5-2-21-20h369q22 0 39.5-13.5T638 976l70-281 190 667q6 20 23 33t39 13q21 0 38-13t23-33l146-485 56 112q18 35 57 35zm512-428q0 145-103 300h-369l-111-221q-8-17-25.5-27t-36.5-8q-45 5-56 46l-129 430-196-686q-6-20-23.5-33T703 384t-39 13.5-22 34.5L526 896H103Q0 741 0 596q0-220 127-344t351-124q62 0 126.5 21.5t120 58T820 276t76 68q36-36 76-68t95.5-68.5 120-58T1314 128q224 0 351 124t127 344z"/></symbol><symbol id="id-card" viewBox="0 0 2048 1792"><path d="M896 1212q0-54-7.5-100.5t-24.5-90-51-68.5-81-25q-64 64-156 64t-156-64q-47 0-81 25t-51 68.5-24.5 90T256 1212q0 55 31.5 93.5T363 1344h426q44 0 75.5-38.5T896 1212zM768 768q0-80-56-136t-136-56-136 56-56 136 56 136 136 56 136-56 56-136zm1024 480v-64q0-14-9-23t-23-9h-704q-14 0-23 9t-9 23v64q0 14 9 23t23 9h704q14 0 23-9t9-23zm-384-256v-64q0-14-9-23t-23-9h-320q-14 0-23 9t-9 23v64q0 14 9 23t23 9h320q14 0 23-9t9-23zm384 0v-64q0-14-9-23t-23-9h-192q-14 0-23 9t-9 23v64q0 14 9 23t23 9h192q14 0 23-9t9-23zm0-256v-64q0-14-9-23t-23-9h-704q-14 0-23 9t-9 23v64q0 14 9 23t23 9h704q14 0 23-9t9-23zM128 384h1792v-96q0-14-9-23t-23-9H160q-14 0-23 9t-9 23v96zm1920-96v1216q0 66-47 113t-113 47H160q-66 0-113-47T0 1504V288q0-66 47-113t113-47h1728q66 0 113 47t47 113z"/></symbol><symbol id="layers" viewBox="0 0 512 512"><path d="m12.41 148.02 232.94 105.67c6.8 3.09 14.49 3.09 21.29 0l232.94-105.67c16.55-7.51 16.55-32.52 0-40.03L266.65 2.31a25.607 25.607 0 0 0-21.29 0L12.41 107.98c-16.55 7.51-16.55 32.53 0 40.04zm487.18 88.28-58.09-26.33-161.64 73.27c-7.56 3.43-15.59 5.17-23.86 5.17s-16.29-1.74-23.86-5.17L70.51 209.97l-58.1 26.33c-16.55 7.5-16.55 32.5 0 40l232.94 105.59c6.8 3.08 14.49 3.08 21.29 0L499.59 276.3c16.55-7.5 16.55-32.5 0-40zm0 127.8-57.87-26.23-161.86 73.37c-7.56 3.43-15.59 5.17-23.86 5.17s-16.29-1.74-23.86-5.17L70.29 337.87 12.41 364.1c-16.55 7.5-16.55 32.5 0 40l232.94 105.59c6.8 3.08 14.49 3.08 21.29 0L499.59 404.1c16.55-7.5 16.55-32.5 0-40z"/></symbol><symbol id="line-chart" viewBox="0 0 2048 1792"><path d="M2048 1536v128H0V128h128v1408h1920zM1920 288v435q0 21-19.5 29.5T1865 745l-121-121-633 633q-10 10-23 10t-23-10l-233-233-416 416-192-192 585-585q10-10 23-10t23 10l233 233 464-464-121-121q-16-16-7.5-35.5T1453 256h435q14 0 23 9t9 23z"/></symbol><symbol id="link" viewBox="0 0 1792 1792"><path d="M1520 1216q0-40-28-68l-208-208q-28-28-68-28-42 0-72 32 3 3 19 18.5t21.5 21.5 15 19 13 25.5 3.5 27.5q0 40-28 68t-68 28q-15 0-27.5-3.5t-25.5-13-19-15-21.5-21.5-18.5-19q-33 31-33 73 0 40 28 68l206 207q27 27 68 27 40 0 68-26l147-146q28-28 28-67zM817 511q0-40-28-68L583 236q-28-28-68-28-39 0-68 27L300 381q-28 28-28 67 0 40 28 68l208 208q27 27 68 27 42 0 72-31-3-3-19-18.5T607.5 680t-15-19-13-25.5T576 608q0-40 28-68t68-28q15 0 27.5 3.5t25.5 13 19 15 21.5 21.5 18.5 19q33-31 33-73zm895 705q0 120-85 203l-147 146q-83 83-203 83-121 0-204-85l-206-207q-83-83-83-203 0-123 88-209l-88-88q-86 88-208 88-120 0-204-84L164 652q-84-84-84-204t85-203L312 99q83-83 203-83 121 0 204 85l206 207q83 83 83 203 0 123-88 209l88 88q86-88 208-88 120 0 204 84l208 208q84 84 84 204z"/></symbol><symbol id="lock" viewBox="0 0 1792 1792"><path d="M640 768h512V576q0-106-75-181t-181-75-181 75-75 181v192zm832 96v576q0 40-28 68t-68 28H416q-40 0-68-28t-28-68V864q0-40 28-68t68-28h32V576q0-184 132-316t316-132 316 132 132 316v192h32q40 0 68 28t28 68z"/></symbol><symbol id="logo" viewBox="0 0 835.3 341.3"><path fill="#FFF" d="M106 175.7h-6.5c-1.1 0-2 .9-2 2v2.8c-.5-.1-.9-.1-1.4-.1H51.2c-4.4 0-7.9 3.6-7.9 7.9V212c0 4.4 3.6 7.9 7.9 7.9H96c.5 0 1-.1 1.4-.1v3c0 1.1.9 2 2 2h6.5c1.1 0 2-.9 2-2v-45c.1-1.2-.8-2.1-1.9-2.1z"/><path d="M98.8 183.2h8.7v6.8h-8.7zM43.3 187h54.2v5.5H43.3z"/><path fill="#FFF" d="M241.6 175.7h6.5c1.1 0 2 .9 2 2v2.8c.5-.1.9-.1 1.4-.1h44.8c4.4 0 7.9 3.6 7.9 7.9V212c0 4.4-3.6 7.9-7.9 7.9h-44.8c-.5 0-1-.1-1.4-.1v3c0 1.1-.9 2-2 2h-6.5c-1.1 0-2-.9-2-2v-45c0-1.2.9-2.1 2-2.1z"/><path d="M248.733 189.967h-8.7v-6.8h8.7zm55.5 2.571h-54.2v-5.5h54.2z"/><path fill="#FFF" d="M121 231.8h-7.8c-.6 0-1-.4-1-1v-63c0-.6.4-1 1-1h7.8c.6 0 1 .4 1 1v63c0 .5-.4 1-1 1zm113.3 0h-7.8c-.6 0-1-.4-1-1v-63c0-.6.4-1 1-1h7.8c.6 0 1 .4 1 1v63c0 .5-.5 1-1 1zm-40.8-60.9h-39.3c-.6 0-1-.4-1-1V162c0-.6.4-1 1-1h39.3c.6 0 1 .4 1 1v7.9c0 .6-.4 1-1 1zm-13-12.4h-13c-.6 0-1-.4-1-1v-13c0-.6.4-1 1-1h13c.6 0 1 .4 1 1v13c0 .6-.4 1-1 1zm8.8-18h-31c-1.1 0-2-.9-2-2V134c0-1.1.9-2 2-2h31c1.1 0 2 .9 2 2v4.5c0 1.1-.9 2-2 2zm37.8-14h-107c-3.2 0-5.9-2.6-5.9-5.9 0-3.2 2.6-5.9 5.9-5.9h107c3.2 0 5.9 2.6 5.9 5.9 0 3.3-2.6 5.9-5.9 5.9zm-49.3-14.2h-8c-.7 0-1.3-.6-1.3-1.3 0-.7.6-1.3 1.3-1.3h8c.7 0 1.3.6 1.3 1.3-.1.7-.7 1.3-1.3 1.3zm-52.3 63.4c-.2 2.6-.2 44 0 46.2.6 1.3 7.4-3.6 10.2-4.3 3.1-.8 7.9-.8 10.3 1.3s14.8 12.8 28 12.8c1.1-17.8 0-57.8 0-57.8s-19.5-.4-22.4 0c-2 1-2.3 3.1-5.3 5.8-2.9 2.7-12.3 1.2-14.6.3-2.2-.7-5.7-5.4-6.2-4.3z"/><path fill="#FFF" d="M221.7 175.7c.2 2.6.2 44 0 46.2-.6 1.3-7.4-3.6-10.2-4.3-3.1-.8-7.9-.8-10.3 1.3-2.4 2.1-14.8 12.8-28 12.8-1.1-17.8 0-57.8 0-57.8s19.5-.4 22.4 0c2 1 2.3 3.1 5.3 5.8 2.9 2.7 12.3 1.2 14.6.3 2.2-.7 5.7-5.4 6.2-4.3z"/><path fill="none" d="M173.7 291.6c18.1 0 35.3-4 50.8-11.2 12.7-5.9 24.3-14 34.1-23.7 16.3-16.1 28-36.8 33-60 1.8-8.3 2.8-16.9 2.8-25.7 0-62.1-46.9-113.2-107.1-119.9-4.5-.5-9-.8-13.6-.8-62.5 0-113.9 47.5-120.1 108.3-.4 4.1-.6 8.2-.6 12.4 0 36.8 16.4 69.7 42.3 91.8 21.1 18 48.5 28.8 78.4 28.8z"/><path fill="#414042" d="M173.7 50.2c4.6 0 9.1.3 13.6.8 9.7-8.8 23.8-21.6 36.7-33.3-16-5.3-33-8.2-50.8-8.2-5.1 0-10.1.2-15.1.7-7.6 6.2-16.6 13.2-24.8 18.9-13 9-28.1 17-43.7 26.3-10.3 6.1-35.3 18.8-51.2 26.7-16.8 25.5-26.6 55.9-26.6 88.7 0 8.3.6 16.5 1.8 24.4l39.9-36.8c6.3-60.7 57.7-108.2 120.2-108.2z"/><path fill="#FDE900" d="m53.8 279.3 41.5-16.6c-25.9-22.1-42.3-55-42.3-91.8 0-4.2.2-8.3.6-12.4l-39.9 36.8c4.9 32.1 19.3 61.1 40.1 84z"/><path fill="#197DBD" d="M294.4 170.9c0 8.8-1 17.4-2.8 25.7l42.1-9.6c.5-5.3.8-10.7.8-16.2C334.6 99.5 288.3 39 224 17.7c-12.9 11.6-27 24.4-36.7 33.3 60.3 6.7 107.1 57.8 107.1 119.9z"/><path fill="#FDE900" d="M133.3 29.2c8.2-5.7 17.2-12.7 24.8-18.9-50 4.6-93.4 32.1-119.7 71.9 15.8-7.9 40.9-20.5 51.2-26.7 15.6-9.3 30.8-17.4 43.7-26.3z"/><path fill="#E32226" d="M173.7 291.6c-29.9 0-57.3-10.9-78.4-28.9l-41.5 16.6c27.8 30.7 67.3 50.6 111.5 52.7 17.5-16.9 37.7-35 59.2-51.6-15.5 7.2-32.7 11.2-50.8 11.2zm84.9-34.9c21.4-13.3 43.7-23.8 65.7-29 4.8-12.8 8.1-26.5 9.5-40.6l-42.1 9.6c-5.1 23.2-16.8 43.9-33.1 60z"/><path fill="#07A456" d="M224.5 280.5c-21.6 16.5-41.7 34.7-59.2 51.6 2.6.1 5.3.2 8 .2 69.1 0 128.1-43.5 151-104.5-22 5.3-44.2 15.7-65.7 29-9.8 9.7-21.4 17.7-34.1 23.7z"/><path d="M438.1 147c-3.3-2.8-6.8-4.9-10.4-6.3-3.7-1.4-7.5-2.1-11.5-2.1-7.8 0-14.2 2.5-19.1 7.5-4.9 5-7.3 11.5-7.3 19.5 0 7.7 2.4 14.1 7.2 19.1 4.8 5 10.8 7.5 18 7.5 4.2 0 8.3-.7 12.1-2.2 3.8-1.5 7.5-3.8 11-6.8v13.1c-3.1 2.2-6.5 3.9-10.2 5-3.7 1.1-7.7 1.7-12 1.7-5.5 0-10.5-.9-15.2-2.7s-8.7-4.4-12.2-7.9c-3.5-3.4-6.2-7.4-8-12.1-1.9-4.6-2.8-9.6-2.8-14.8 0-5.2.9-10.2 2.8-14.8 1.9-4.6 4.6-8.7 8.1-12.1 3.5-3.5 7.6-6.2 12.2-8s9.6-2.7 14.9-2.7c4.2 0 8.2.6 12 1.8s7.5 3.1 11.1 5.5l-.7 11.8zm16.8 22.2v32H444v-71.5h16.2c4.8 0 8.4.3 11.1.9 2.6.6 4.9 1.6 6.7 3.1 2.2 1.7 3.9 4 5.1 6.7 1.2 2.7 1.8 5.7 1.8 9 0 5.7-1.4 10.2-4.2 13.5-2.8 3.2-6.9 5.2-12.3 5.8l24.6 32.5h-13l-23.8-32h-1.3zm.8-9.1h2.1c6.2 0 10.2-.7 12.3-2.1 2-1.4 3-4 3-7.6 0-3.9-1.1-6.7-3.2-8.3s-6.2-2.4-12-2.4h-2.1v20.4zm35.6-30.4h11.5v43.4c0 6.4 1.5 11.3 4.5 14.5 3 3.2 7.4 4.9 13.4 4.9 5.9 0 10.3-1.6 13.3-4.9 3-3.2 4.5-8.1 4.5-14.5v-43.4H550v44.5c0 9.7-2.4 16.9-7.3 21.7-4.9 4.8-12.2 7.2-22.1 7.2-9.8 0-17.2-2.4-22-7.2-4.9-4.8-7.3-12-7.3-21.7v-44.5zm66.2 71.4v-71.5h15.7c10.2 0 17.4.5 21.5 1.5s7.8 2.7 10.9 5.2c4.1 3.2 7.3 7.2 9.4 12.2 2.1 4.9 3.2 10.6 3.2 16.9s-1.1 12-3.2 16.9c-2.1 4.9-5.3 8.9-9.4 12.1-3.1 2.4-6.7 4.1-10.7 5.2-4 1-10.2 1.5-18.6 1.5h-18.8zm11.6-10.5h9.8c5.4 0 9.4-.4 12.1-1.1 2.7-.7 5-1.9 7-3.6 2.7-2.3 4.7-5.2 6.1-8.6 1.4-3.4 2-7.4 2-12s-.7-8.6-2-12c-1.4-3.4-3.4-6.3-6.1-8.6-2-1.7-4.4-2.9-7.3-3.6-2.8-.7-7.2-1.1-13.2-1.1h-8.4v50.6zm53.9 10.5v-71.5h39.9v9.9h-28.3v17.9h28.3v10.2h-28.3v23.1h28.3v10.4H623zm139.7-35.6c0 5.1-1 9.9-2.9 14.4s-4.7 8.6-8.3 12.1c-3.7 3.5-7.8 6.3-12.5 8.2-4.6 1.9-9.5 2.8-14.6 2.8s-10.1-1-14.7-2.9c-4.7-1.9-8.8-4.6-12.4-8.1-3.6-3.5-6.4-7.6-8.3-12.1-1.9-4.5-2.8-9.3-2.8-14.5 0-5.1.9-9.9 2.8-14.5 1.9-4.5 4.7-8.6 8.3-12.2 3.6-3.5 7.8-6.3 12.4-8.1 4.6-1.9 9.5-2.8 14.7-2.8 5.1 0 10 .9 14.6 2.8s8.7 4.6 12.4 8.1c3.6 3.6 6.4 7.7 8.3 12.2s3 9.6 3 14.6zm-12.1 0c0-3.6-.7-7-2-10.3-1.3-3.3-3.2-6.2-5.7-8.7-2.4-2.5-5.2-4.4-8.4-5.8-3.2-1.4-6.5-2-10-2s-6.9.7-10 2c-3.2 1.3-6 3.3-8.5 5.8s-4.4 5.4-5.7 8.6c-1.3 3.3-2 6.7-2 10.4 0 3.6.7 7 2 10.3 1.3 3.2 3.2 6.1 5.7 8.6s5.3 4.5 8.4 5.8c3.2 1.3 6.5 2 10.1 2 3.5 0 6.8-.7 9.9-2 3.1-1.3 6-3.3 8.5-5.8s4.4-5.4 5.7-8.7c1.3-3.2 2-6.6 2-10.2zm17.1 35.6v-71.5h11.6v71.5h-11.6zm19.8 0v-71.5h11.6v61.1h26v10.4h-37.6zM391.7 259v32.1h-10.9v-71.5h17.6c5.2 0 9 .3 11.5.9 2.5.6 4.6 1.5 6.4 2.8 2.2 1.7 4 3.9 5.3 6.7 1.3 2.8 1.9 5.9 1.9 9.3 0 3.4-.6 6.5-1.9 9.4-1.3 2.9-3 5.1-5.3 6.7-1.8 1.3-4 2.2-6.4 2.8-2.5.6-6.3.8-11.5.8h-6.7zm.7-9.5h3c6.4 0 10.7-.7 12.9-2.1 2.1-1.4 3.2-3.9 3.2-7.4 0-3.8-1.1-6.5-3.4-8.1s-6.5-2.3-12.7-2.3h-3v19.9zm35.5 41.6v-71.5h11.6v71.5h-11.6zm32.9-32.1v32.1h-10.9v-71.5h17.6c5.2 0 9 .3 11.5.9 2.5.6 4.6 1.5 6.4 2.8 2.2 1.7 4 3.9 5.3 6.7 1.3 2.8 1.9 5.9 1.9 9.3 0 3.4-.6 6.5-1.9 9.4-1.3 2.9-3 5.1-5.3 6.7-1.8 1.3-4 2.2-6.4 2.8-2.5.6-6.3.8-11.5.8h-6.7zm.7-9.5h3c6.4 0 10.7-.7 12.9-2.1 2.1-1.4 3.2-3.9 3.2-7.4 0-3.8-1.1-6.5-3.4-8.1s-6.5-2.3-12.7-2.3h-3v19.9zm35.3 41.6v-71.5h39.9v9.9h-28.3v17.9h28.3v10.2h-28.3v23.1h28.3v10.4h-39.9zm47 0v-71.5h11.6v61.1h26v10.4h-37.6zm40.9 0v-71.5h11.6v71.5h-11.6zm22 0v-74.3l45.4 43.7c1.2 1.2 2.5 2.6 3.8 4 1.3 1.4 2.6 3 4 4.7v-49.6h10.7v74.3l-46.3-44.5c-1.2-1.2-2.4-2.5-3.6-3.8-1.2-1.3-2.3-2.7-3.3-4.2v49.7h-10.7zm74 0v-71.5h39.9v9.9h-28.3v17.9h28.3v10.2h-28.3v23.1h28.3v10.4h-39.9z" fill="#FFF"/><path d="M378.3 113.1V66.6h23v4h-18.8v14.5h18.8v4h-18.8v20h18.8v4h-23zm29.3 0L428 64.8l19.6 48.3H443l-6-15.7h-19l-6.2 15.7h-4.2zm11.9-19.4h16.2l-7.9-20.2-8.3 20.2zm32 11.6 3.6-1.9c.7 2.3 1.8 4.1 3.5 5.3 1.7 1.3 3.7 1.9 6 1.9 2.9 0 5.2-.9 6.9-2.6 1.7-1.7 2.5-4.1 2.5-7.2 0-2.2-.6-4.1-1.7-5.6s-3.5-3.2-7.2-5.1c-4.7-2.5-7.8-4.7-9.3-6.5-1.5-1.9-2.3-4.1-2.3-6.8 0-3.3 1.1-6 3.3-8.1 2.2-2.1 5.1-3.1 8.7-3.1 2.3 0 4.4.5 6.1 1.5 1.7 1 3.1 2.5 4.2 4.4l-3.3 2c-.7-1.3-1.6-2.3-2.9-3-1.2-.7-2.7-1-4.4-1-2.3 0-4.1.7-5.5 2-1.4 1.3-2 3.2-2 5.4 0 3.3 2.7 6.3 8.1 9.1 1 .5 1.7.9 2.2 1.2 4 2.2 6.6 4.2 7.9 6.2 1.3 1.9 2 4.4 2 7.5 0 4.2-1.2 7.5-3.6 9.9-2.4 2.4-5.7 3.7-9.9 3.7-3 0-5.7-.8-7.8-2.3-2.2-1.6-3.9-3.9-5.1-6.9zm46.5 7.8V70.6h-12.8v-4H515v4h-12.8v42.5H498zm41 0 20.4-48.3 19.5 48.3h-4.6l-5.9-15.7h-19l-6.2 15.7H539zm11.8-19.4H567l-7.9-20.2-8.3 20.2zm35.6 19.4V66.6h23v4h-18.8v14.5h18.1v4h-18.1v24h-4.2zm63 0h-5.1L628 91h-2.5v22.2h-4.2V66.6h8.5c5 0 8.8 1 11.3 3.1s3.8 5.3 3.8 9.5c0 3.6-1.1 6.5-3.2 8.5-2.1 2.1-5.1 3.1-8.9 3.1l16.6 22.3zm-24-42.8v17.2h4.3c3.9 0 6.7-.6 8.2-1.9 1.6-1.3 2.3-3.4 2.3-6.4 0-3.2-.8-5.5-2.4-6.8-1.6-1.4-4.3-2-8.2-2h-4.2zm32.4 42.8V66.6h4.2v46.5h-4.2zm55.4-38c-2.3-2-4.7-3.5-7.1-4.4s-5-1.4-7.6-1.4c-6 0-10.9 1.9-14.6 5.7-3.8 3.8-5.6 8.8-5.6 14.9 0 3.1.5 5.8 1.4 8.3.9 2.5 2.3 4.6 4.2 6.5 1.9 1.9 4 3.3 6.4 4.3 2.4 1 5 1.5 7.7 1.5s5.3-.5 7.8-1.4c2.5-.9 4.9-2.3 7.2-4v5c-2.3 1.4-4.7 2.5-7.3 3.2-2.5.8-5.1 1.1-7.6 1.1-3.4 0-6.6-.6-9.6-1.8-3.1-1.2-5.7-2.9-7.9-5.1-2.3-2.2-4-4.8-5.1-7.8-1.2-3-1.7-6.2-1.7-9.7 0-3.5.6-6.7 1.8-9.7 1.2-3 2.9-5.6 5.2-7.8 2.2-2.1 4.8-3.8 7.9-5 3.1-1.2 6.3-1.8 9.6-1.8 3 0 5.7.4 8.2 1.2s4.8 2 6.9 3.7l-.2 4.5zm5.1 38 20.4-48.3 19.6 48.3h-4.6l-5.9-15.7h-19l-6.2 15.7h-4.3zm11.9-19.4h16.2l-7.9-20.2-8.3 20.2zm35.5 19.4V64.7l32.9 38.9v-37h3.9v47.8l-32.9-38.9v37.6h-3.9z" fill="#A7A9AC"/></symbol><symbol id="logos-ics-newplan" viewBox="0 0 1792 347.2"><path fill="#E22428" d="M85.2 163.8v-61.1c0-9.6 14.1-14.5 14.1-14.5v-9H28.2v9s14.1 4.9 14.1 14.5V243c0 9.6-14.1 14.5-14.1 14.5v9h71v-9s-14.1-4.9-14.1-14.5v-61.1c.1 0 .1-7.4.1-18.1z"/><path fill="#1D7DBD" d="M203.3 93.2c14.8 0 28.1 15.7 28.1 30.2 8.7 0 19.1-.2 19.1-.2V83.7s-18.6-7.1-52.8-7.1-80.9 24.4-82.2 93.7c1.4 69.4 24.1 98.3 82.2 98.3 34.2 0 52.8-7.4 52.8-7.4v-40.9s-10.3-.2-19.1-.2c0 14.5-13.3 32.5-28.1 32.5-34.1-.1-43.8-27-43.8-82.3s19.4-77.1 43.8-77.1z"/><path d="M394.6 122.8V83s-26-6.4-53.7-6.4C313 76.6 276 92.2 276 126c0 64.1 79.5 54.2 79.5 98.5 0 30.3-25.7 27.3-29.9 27.3s-33.3-5.3-33.3-31.9h-19.1v41.8s23.9 6.9 67.5 6.9c6.9 0 56-4.1 56-55.1 0-58.6-80.5-55.8-80.5-96.9 0 0-1.7-23.2 27-23.2 30.3 0 30.9 21.1 30.9 29.5l20.5-.1zM1135.7 77.6l-39.3 135.5-37.6-135.5h-58.9l-40 129.8-40.3-129.8H793.8c-39.3 0-79.7 34-79.7 70.7v-14.5c0-17.8-14.2-56.2-55-56.2H538.4v190.2h48.8V119.5h44.4c21.5 0 33.7 9.7 33.7 34.6v113.6h48.8v-60c0 24 32.7 60 61 60h100.2v-35.6h-77.9c-14.3 0-33-12.5-33-34.5h110.9v-39.5H764.4c0-18.4 15.6-39.8 35.6-39.8h76.7l50.4 149.3H991l36.8-125.6 37.8 125.6h64.6l62.6-190.2h-57.1z"/><path fill="#E22428" d="M1727.7 77.6h-123.4v49.1c-4.9-26.9-32.8-49.1-67.1-49.1h-108.9v40.9h101.9c12 0 24.6 10.7 24.6 21.3v15.6h-85.6c-28.4 0-45.4 18.4-50.9 40.3V11H1367v128.4c-10.1-34.1-36.9-61.8-80.2-61.8h-81.6l-25.6 79.2v178.8h49.6V266h57.6c43.4 0 70.1-27.7 80.2-61.8v64.4h51.3v-40.3c5.5 22 22.5 40.3 50.9 40.3h186.5V119.5h44.4c21.5 0 33.7 9.7 33.7 34.6v114.5h48.8V133.7c.2-17.7-14-56.1-54.9-56.1zm-457.5 150.8h-40.6V116.2h40.6c63.9 0 63.9 112.2 0 112.2zm284.3 0h-62.6c-30.6 0-30.6-37 0-37h62.6v37z"/></symbol><symbol id="minus" viewBox="0 0 1792 1792"><path d="M1600 736v192q0 40-28 68t-68 28H288q-40 0-68-28t-28-68V736q0-40 28-68t68-28h1216q40 0 68 28t28 68z"/></symbol><symbol id="plus" viewBox="0 0 1792 1792"><path d="M1600 736v192q0 40-28 68t-68 28h-416v416q0 40-28 68t-68 28H800q-40 0-68-28t-28-68v-416H288q-40 0-68-28t-28-68V736q0-40 28-68t68-28h416V224q0-40 28-68t68-28h192q40 0 68 28t28 68v416h416q40 0 68 28t28 68z"/></symbol><symbol id="save" viewBox="0 0 1792 1792"><path d="M512 1536h768v-384H512v384zm896 0h128V640q0-14-10-38.5t-20-34.5l-281-281q-10-10-34-20t-39-10v416q0 40-28 68t-68 28H480q-40 0-68-28t-28-68V256H256v1280h128v-416q0-40 28-68t68-28h832q40 0 68 28t28 68v416zm-384-928V288q0-13-9.5-22.5T992 256H800q-13 0-22.5 9.5T768 288v320q0 13 9.5 22.5T800 640h192q13 0 22.5-9.5t9.5-22.5zm640 32v928q0 40-28 68t-68 28H224q-40 0-68-28t-28-68V224q0-40 28-68t68-28h928q40 0 88 20t76 48l280 280q28 28 48 76t20 88z"/></symbol><symbol id="search" viewBox="0 0 1792 1792"><path d="M1216 832q0-185-131.5-316.5T768 384 451.5 515.5 320 832t131.5 316.5T768 1280t316.5-131.5T1216 832zm512 832q0 52-38 90t-90 38q-54 0-90-38l-343-342q-179 124-399 124-143 0-273.5-55.5t-225-150-150-225T64 832t55.5-273.5 150-225 225-150T768 128t273.5 55.5 225 150 150 225T1472 832q0 220-124 399l343 343q37 37 37 90z"/></symbol><symbol id="table" viewBox="0 0 1792 1792"><path d="M576 1376v-192q0-14-9-23t-23-9H224q-14 0-23 9t-9 23v192q0 14 9 23t23 9h320q14 0 23-9t9-23zm0-384V800q0-14-9-23t-23-9H224q-14 0-23 9t-9 23v192q0 14 9 23t23 9h320q14 0 23-9t9-23zm512 384v-192q0-14-9-23t-23-9H736q-14 0-23 9t-9 23v192q0 14 9 23t23 9h320q14 0 23-9t9-23zM576 608V416q0-14-9-23t-23-9H224q-14 0-23 9t-9 23v192q0 14 9 23t23 9h320q14 0 23-9t9-23zm512 384V800q0-14-9-23t-23-9H736q-14 0-23 9t-9 23v192q0 14 9 23t23 9h320q14 0 23-9t9-23zm512 384v-192q0-14-9-23t-23-9h-320q-14 0-23 9t-9 23v192q0 14 9 23t23 9h320q14 0 23-9t9-23zm-512-768V416q0-14-9-23t-23-9H736q-14 0-23 9t-9 23v192q0 14 9 23t23 9h320q14 0 23-9t9-23zm512 384V800q0-14-9-23t-23-9h-320q-14 0-23 9t-9 23v192q0 14 9 23t23 9h320q14 0 23-9t9-23zm0-384V416q0-14-9-23t-23-9h-320q-14 0-23 9t-9 23v192q0 14 9 23t23 9h320q14 0 23-9t9-23zm128-320v1088q0 66-47 113t-113 47H224q-66 0-113-47t-47-113V288q0-66 47-113t113-47h1344q66 0 113 47t47 113z"/></symbol><symbol style="enable-background:new 0 0 1792 1792" id="th" viewBox="0 0 1792 1792"><path d="M0 0h500v500H0zm1292 0h500v500h-500zM646 0h500v500H646zM0 1292h500v500H0zm1292 0h500v500h-500zm-646 0h500v500H646zM0 646h500v500H0zm1292 0h500v500h-500zm-646 0h500v500H646z"/></symbol><symbol id="times" viewBox="0 0 1792 1792"><path d="M1490 1322q0 40-28 68l-136 136q-28 28-68 28t-68-28l-294-294-294 294q-28 28-68 28t-68-28l-136-136q-28-28-28-68t28-68l294-294-294-294q-28-28-28-68t28-68l136-136q28-28 68-28t68 28l294 294 294-294q28-28 68-28t68 28l136 136q28 28 28 68t-28 68l-294 294 294 294q28 28 28 68z"/></symbol><symbol id="tools" viewBox="0 0 512 512"><path d="M501.1 395.7 384 278.6c-23.1-23.1-57.6-27.6-85.4-13.9L192 158.1V96L64 0 0 64l96 128h62.1l106.6 106.6c-13.6 27.8-9.2 62.3 13.9 85.4l117.1 117.1c14.6 14.6 38.2 14.6 52.7 0l52.7-52.7c14.5-14.6 14.5-38.2 0-52.7zM331.7 225c28.3 0 54.9 11 74.9 31l19.4 19.4c15.8-6.9 30.8-16.5 43.8-29.5 37.1-37.1 49.7-89.3 37.9-136.7-2.2-9-13.5-12.1-20.1-5.5l-74.4 74.4-67.9-11.3L334 98.9l74.4-74.4c6.6-6.6 3.4-17.9-5.7-20.2-47.4-11.7-99.6.9-136.6 37.9-28.5 28.5-41.9 66.1-41.2 103.6l82.1 82.1c8.1-1.9 16.5-2.9 24.7-2.9zm-103.9 82-56.7-56.7L18.7 402.8c-25 25-25 65.5 0 90.5s65.5 25 90.5 0l123.6-123.6c-7.6-19.9-9.9-41.6-5-62.7zM64 472c-13.2 0-24-10.8-24-24 0-13.3 10.7-24 24-24s24 10.7 24 24c0 13.2-10.7 24-24 24z"/></symbol><symbol id="trash" viewBox="0 0 1792 1792"><path d="M704 1376V672q0-14-9-23t-23-9h-64q-14 0-23 9t-9 23v704q0 14 9 23t23 9h64q14 0 23-9t9-23zm256 0V672q0-14-9-23t-23-9h-64q-14 0-23 9t-9 23v704q0 14 9 23t23 9h64q14 0 23-9t9-23zm256 0V672q0-14-9-23t-23-9h-64q-14 0-23 9t-9 23v704q0 14 9 23t23 9h64q14 0 23-9t9-23zM672 384h448l-48-117q-7-9-17-11H738q-10 2-17 11zm928 32v64q0 14-9 23t-23 9h-96v948q0 83-47 143.5t-113 60.5H480q-66 0-113-58.5T320 1464V512h-96q-14 0-23-9t-9-23v-64q0-14 9-23t23-9h309l70-167q15-37 54-63t79-26h320q40 0 79 26t54 63l70 167h309q14 0 23 9t9 23z"/></symbol><symbol id="unlock" viewBox="0 0 1792 1792"><path d="M1728 576v256q0 26-19 45t-45 19h-64q-26 0-45-19t-19-45V576q0-106-75-181t-181-75-181 75-75 181v192h96q40 0 68 28t28 68v576q0 40-28 68t-68 28H160q-40 0-68-28t-28-68V864q0-40 28-68t68-28h672V576q0-185 131.5-316.5T1280 128t316.5 131.5T1728 576z"/></symbol><symbol style="enable-background:new 0 0 1792 1792" id="zoom-extents" viewBox="0 0 1792 1792"><path d="M1123.2 808.3c0-84.5-30-156.8-90.1-216.8-60.1-60.1-132.3-90.1-216.8-90.1s-156.8 30-216.8 90.1c-60.1 60.1-90.1 132.3-90.1 216.8s30 156.8 90.1 216.8c60.1 60.1 132.3 90.1 216.8 90.1s156.8-30 216.8-90.1c60-60 90.1-132.3 90.1-216.8zm350.7 569.9c0 23.7-8.7 44.3-26 61.7s-37.9 26-61.7 26c-24.7 0-45.2-8.7-61.7-26l-235-234.3c-81.7 56.6-172.8 84.9-273.3 84.9-65.3 0-127.8-12.7-187.3-38s-111-59.6-154.1-102.8c-43.2-43.2-77.4-94.5-102.8-154.1s-38-122-38-187.3 12.7-127.8 38-187.3 59.6-111 102.8-154.1 94.5-77.4 154.1-102.8 122-38 187.3-38 127.8 12.7 187.3 38c59.6 25.3 111 59.6 154.1 102.8s77.4 94.5 102.8 154.1c25.3 59.6 38 122 38 187.3 0 100.5-28.3 191.6-84.9 273.3l235 235c16.9 16.9 25.4 37.4 25.4 61.6zM580 0H20C9 0 0 9 0 20v560c0 11 9 20 20 20h184c11 0 20-9 20-20V224h356c11 0 20-9 20-20V20c0-11-9-20-20-20z"/><path d="M1212 1792h560c11 0 20-9 20-20v-560c0-11-9-20-20-20h-184c-11 0-20 9-20 20v356h-356c-11 0-20 9-20 20v184c0 11 9 20 20 20zM0 1212v560c0 11 9 20 20 20h560c11 0 20-9 20-20v-184c0-11-9-20-20-20H224v-356c0-11-9-20-20-20H20c-11 0-20 9-20 20zm1792-632V20c0-11-9-20-20-20h-560c-11 0-20 9-20 20v184c0 11 9 20 20 20h356v356c0 11 9 20 20 20h184c11 0 20-9 20-20z"/></symbol><symbol id="zoom-minus" viewBox="0 0 512 512"><path d="M304 192v32c0 6.6-5.4 12-12 12H124c-6.6 0-12-5.4-12-12v-32c0-6.6 5.4-12 12-12h168c6.6 0 12 5.4 12 12zm201 284.7L476.7 505c-9.4 9.4-24.6 9.4-33.9 0L343 405.3c-4.5-4.5-7-10.6-7-17V372c-35.3 27.6-79.7 44-128 44C93.1 416 0 322.9 0 208S93.1 0 208 0s208 93.1 208 208c0 48.3-16.4 92.7-44 128h16.3c6.4 0 12.5 2.5 17 7l99.7 99.7c9.3 9.4 9.3 24.6 0 34zM344 208c0-75.2-60.8-136-136-136S72 132.8 72 208s60.8 136 136 136 136-60.8 136-136z"/></symbol><symbol id="zoom-plus" viewBox="0 0 512 512"><path d="M304 192v32c0 6.6-5.4 12-12 12h-56v56c0 6.6-5.4 12-12 12h-32c-6.6 0-12-5.4-12-12v-56h-56c-6.6 0-12-5.4-12-12v-32c0-6.6 5.4-12 12-12h56v-56c0-6.6 5.4-12 12-12h32c6.6 0 12 5.4 12 12v56h56c6.6 0 12 5.4 12 12zm201 284.7L476.7 505c-9.4 9.4-24.6 9.4-33.9 0L343 405.3c-4.5-4.5-7-10.6-7-17V372c-35.3 27.6-79.7 44-128 44C93.1 416 0 322.9 0 208S93.1 0 208 0s208 93.1 208 208c0 48.3-16.4 92.7-44 128h16.3c6.4 0 12.5 2.5 17 7l99.7 99.7c9.3 9.4 9.3 24.6 0 34zM344 208c0-75.2-60.8-136-136-136S72 132.8 72 208s60.8 136 136 136 136-60.8 136-136z"/></symbol></svg>